<?xml version="1.0" standalone="no"?>
<!DOCTYPE svg PUBLIC "-//W3C//DTD SVG 20010904//EN"
 "http://www.w3.org/TR/2001/REC-SVG-20010904/DTD/svg10.dtd">
<svg version="1.0" xmlns="http://www.w3.org/2000/svg"
 width="260.000000pt" height="260.000000pt" viewBox="0 0 260.000000 260.000000"
 preserveAspectRatio="xMidYMid meet">
<metadata>
Created by potrace 1.11, written by Peter Selinger 2001-2013
</metadata>
<g transform="translate(0.000000,260.000000) scale(0.100000,-0.100000)"
fill="#000000" stroke="none">
<path d="M840 2594 c-187 -35 -410 -167 -467 -277 -34 -68 -25 -185 14 -170
10 4 14 2 12 -6 -3 -7 -9 -13 -14 -13 -28 -2 -114 -33 -140 -51 -87 -60 -173
-211 -191 -336 -3 -20 -7 -42 -10 -50 -9 -28 -5 -198 7 -246 26 -110 99 -195
167 -195 12 0 22 -1 22 -2 0 -2 -10 -32 -21 -68 -24 -76 -34 -241 -18 -310 38
-168 167 -296 332 -332 49 -10 210 -6 252 7 18 5 23 -6 53 -117 84 -320 204
-430 459 -423 162 4 318 68 407 166 52 58 69 110 72 219 l2 85 53 1 c175 5
340 83 490 234 215 216 296 491 199 680 -24 48 -106 123 -168 154 l-51 26 25
56 c99 225 48 466 -136 644 -120 115 -253 171 -420 176 -143 5 -250 -26 -357
-102 l-48 -34 -28 57 c-50 98 -152 183 -257 214 -39 11 -201 20 -240 13z"/>
</g>
</svg>
